<svg xmlns="http://www.w3.org/2000/svg" viewBox="0 0 214.87 83.6"><defs><style>.cls-1{fill:#4e585a;}.cls-2{fill:#6ebe4c;}</style></defs><title>Asset 3</title><g id="Layer_2" data-name="Layer 2"><g id="Layer_1-2" data-name="Layer 1"><g id="_Group_" data-name="&lt;Group&gt;"><g id="_Group_2" data-name="&lt;Group&gt;"><polygon id="_Path_" data-name="&lt;Path&gt;" class="cls-1" points="36.23 0 0 20.93 0 39.42 36.23 18.35 56.6 30.04 52.54 32.4 36.23 23.01 22.03 31.22 54.47 50 72.45 39.48 72.45 20.93 36.23 0"/><polygon id="_Path_2" data-name="&lt;Path&gt;" class="cls-2" points="36.23 83.6 72.45 62.72 72.45 44.18 36.23 65.25 15.85 53.56 19.91 51.2 36.23 60.59 50.42 52.38 17.98 33.6 0 44.12 0 62.72 36.23 83.6"/></g><path class="cls-1" d="M108.68,27.52q4.89-7.17,14.59-7.17a18.23,18.23,0,0,1,14.26,6.11A21.4,21.4,0,0,1,143,41.38a21.39,21.39,0,0,1-5.46,14.91q-5.46,6.1-14.67,6.11t-14.18-7.25V77.89h-6.11V21h6.11Zm13.77-1.63A12.9,12.9,0,0,0,112,30.45a16.34,16.34,0,0,0-3.67,10.93A16.31,16.31,0,0,0,112,52.3a12.9,12.9,0,0,0,10.43,4.56,13.55,13.55,0,0,0,10.6-4.56,15.87,15.87,0,0,0,3.83-10.92,15.89,15.89,0,0,0-3.83-10.93A13.55,13.55,0,0,0,122.45,25.89Z"/><path class="cls-1" d="M155.7,61.75V26.38h-8.31V21h8.31V6.41h6.12V21h9.37v5.38h-9.37V61.75Z"/><path class="cls-1" d="M196.94,56.86a11.43,11.43,0,0,0,6.93-2.2,12.68,12.68,0,0,0,4.4-5.71h6.6a18.55,18.55,0,0,1-6.84,9.7,20.67,20.67,0,0,1-12.39,3.75,18.93,18.93,0,0,1-14.59-6.11,21.22,21.22,0,0,1-5.46-14.91,21.23,21.23,0,0,1,5.46-14.92,18.93,18.93,0,0,1,14.59-6.11A20.67,20.67,0,0,1,208,24.1a18.59,18.59,0,0,1,6.84,9.7h-6.6a12.68,12.68,0,0,0-4.4-5.71,11.43,11.43,0,0,0-6.93-2.2,16.3,16.3,0,0,0-6.64,1.22,13.41,13.41,0,0,0-4.6,3.34,15.64,15.64,0,0,0-4,10.93,15.64,15.64,0,0,0,4,10.92Q189.77,56.86,196.94,56.86Z"/></g></g></g></svg>