<svg xmlns="http://www.w3.org/2000/svg" xmlns:xlink="http://www.w3.org/1999/xlink" viewBox="0 0 185.2227 185.2175"><defs><linearGradient id="linear-gradient" x1="-23.0407" y1="94.1589" x2="199.5764" y2="94.1589" gradientUnits="userSpaceOnUse"><stop offset="0.1576" stop-color="#fff"/><stop offset="1" stop-color="#535353"/></linearGradient><filter id="luminosity-noclip" x="-23.0407" y="-9.1596" width="222.6171" height="206.637" filterUnits="userSpaceOnUse" color-interpolation-filters="sRGB"><feFlood flood-color="#fff" result="bg"/><feBlend in="SourceGraphic" in2="bg"/></filter><mask id="mask" x="-23.0407" y="-9.1596" width="222.6171" height="206.637" maskUnits="userSpaceOnUse"><rect x="-23.0407" y="-9.1596" width="222.6171" height="206.637" style="fill:url(#linear-gradient);filter:url(#luminosity-noclip)"/></mask><radialGradient id="radial-gradient" cx="94.0818" cy="-10.8653" r="195.1272" gradientUnits="userSpaceOnUse"><stop offset="0.5758" stop-color="#fff"/><stop offset="0.7216" stop-color="#fdfdfd"/><stop offset="0.7793" stop-color="#f6f6f6"/><stop offset="0.8215" stop-color="#eaeaea"/><stop offset="0.856" stop-color="#d9d9d9"/><stop offset="0.8859" stop-color="#c2c2c2"/><stop offset="0.9125" stop-color="#a6a6a6"/><stop offset="0.9368" stop-color="#858585"/><stop offset="0.9592" stop-color="#5e5e5e"/><stop offset="0.9796" stop-color="#333"/><stop offset="0.9984" stop-color="#040404"/><stop offset="1"/></radialGradient><radialGradient id="radial-gradient-2" cx="94.0803" cy="-10.871" r="195.1391" xlink:href="#radial-gradient"/><radialGradient id="radial-gradient-3" cx="94.0796" cy="-10.8716" r="195.1371" xlink:href="#radial-gradient"/><radialGradient id="radial-gradient-4" cx="94.0824" cy="-10.8656" r="195.1279" xlink:href="#radial-gradient"/><radialGradient id="radial-gradient-5" cx="94.0814" cy="-10.8654" r="195.1271" xlink:href="#radial-gradient"/><radialGradient id="radial-gradient-6" cx="94.0817" cy="-10.8667" r="195.1317" xlink:href="#radial-gradient"/><radialGradient id="radial-gradient-7" cx="94.0805" cy="-10.8333" r="195.0957" xlink:href="#radial-gradient"/></defs><title>manevco-logo-small</title><g style="isolation:isolate"><g id="Layer_2" data-name="Layer 2"><g id="Layer_1-2" data-name="Layer 1"><g id="Logo"><g style="mask:url(#mask)"><path d="M142.12,30.04C121.5173,41.7922,101.0711,53.57,80.2,65.45c-6.592,3.7534-14.9306,7.2388-20.1042,12.9338-5.58,6.1536-5.266,13.8713-5.7643,20.3646-.2853,3.7386-.65,6.9892-.8992,10.1185-.24,3.0686-1.0541,6.6815-.5092,10.2429.9817,6.3456,7.0818,6.2353,11.78,6.3954a122.0186,122.0186,0,0,0,28.8189-2.6816c25.6276-5.074,52.7015-17.299,76.3235-44.3093,3.064-3.507,5.8357-7.04,8.3822-10.5795a47.6487,47.6487,0,0,0-6.7616-8.5554Z" style="fill:#006680"/><path d="M61.9,11.4373c-1.3836,15.5991-2.8332,31.4415-4.11,47.2233-.2448,2.9916-.7367,6.7676,1.6649,8.8375,3.5841,3.099,9.2917-1.2848,13.9575-3.9672,22.1034-12.7184,43.5762-24.9854,65.0266-37.1762L125.8381,13.7582A46.9789,46.9789,0,0,0,61.9,11.4373Z" style="fill:#31c4f3"/><path d="M40.6343,82.2243c4.8036-2.9421,8.5306-7.0226,10.113-11.65,1.4295-4.1918,1.5282-8.4808,1.9277-12.94C53.8433,44.459,54.954,31.5819,56.0009,18.71c.0412-.5651.0949-1.148.1415-1.7116L13.7585,59.3795a46.9725,46.9725,0,0,0-12.4,44.477c4.4839-1.31,9.0038-4.2687,13.4048-6.7716C23.6532,92.0156,31.9319,87.5424,40.6343,82.2243Z" style="fill:#00323f"/><path d="M49.4657,96.956c.2378-2.9769,1.0508-7.5443-2.436-9.6072-3.3058-1.951-7.3515,1.2786-11.0109,3.3346C30.66,93.6852,22.7516,98.31,16.8131,101.6957c-2.2633,1.2748-8.0035,3.7729-8.9666,6.66-1.36,4.07,5.1859,6.5774,7.94,7.6764a121.5122,121.5122,0,0,0,19.4614,6.1544c2.8564.6466,6.9527,1.6477,9.7347-.5161,3.252-2.5449,2.97-6.47,3.2038-9.0973C48.6114,107.7584,49.1128,101.3818,49.4657,96.956Z" style="fill:#7bb4d1"/><path d="M41.3992,146.7683c5.5621-2.5511,5.4316-9.7905.635-13.1888-.14-.0979-.2324-.3015-.3832-.39-3.5452-2.0521-8.6417-2.4717-12.7979-3.5849a154.9959,154.9959,0,0,1-16.7091-5.4688q.787.8627,1.6145,1.7007L34.61,146.69C37.0658,147.3869,39.4536,147.6575,41.3992,146.7683Z" style="fill:#0097be"/><path d="M134.8817,117.577C111.07,130.1641,87.2629,134.5961,63.298,134.5961c-3.741,0-7.5713-.4928-10.2476,2.0551-4.1926,3.989-2.6941,11.88,2.5627,14.8537,3.476,1.9788,8.8663,2.3131,13.0643,2.8184a175.323,175.323,0,0,0,84.4211-10.131l18.367-18.356A46.9888,46.9888,0,0,0,182.67,77.308c-2.1928,2.8682-4.5167,5.7044-7.0631,8.4987A150.1753,150.1753,0,0,1,134.8817,117.577Z" style="fill:#67899f"/><path d="M63.0391,158.6745c-4.212-.5845-8.2251-2.1111-11.778,1.2872a7.41,7.41,0,0,0-1.4295,1.9508l9.5573,9.54a46.98,46.98,0,0,0,66.4491,0l18.9071-18.9017c-17.3176,5.2932-34.7167,7.6079-52.51,8.18A179.2075,179.2075,0,0,1,63.0391,158.6745Z" style="fill:#27434f"/></g><g style="mix-blend-mode:multiply"><path d="M142.12,30.04c-20.603,11.75-41.0493,23.53-61.9206,35.4063-6.592,3.7566-14.9306,7.2388-20.1042,12.937-5.58,6.1536-5.266,13.8681-5.7643,20.3584-.2853,3.7417-.65,6.9954-.8992,10.1247-.24,3.0686-1.0541,6.6815-.5092,10.24.9817,6.3456,7.0818,6.2353,11.78,6.3986A122.179,122.179,0,0,0,93.5214,122.82c25.6276-5.074,52.7015-17.2958,76.3235-44.3091,3.064-3.5056,5.8357-7.0366,8.3822-10.5795a47.7464,47.7464,0,0,0-6.7616-8.554Z" style="fill:url(#radial-gradient)"/><path d="M61.9,11.4373c-1.3836,15.5991-2.8332,31.44-4.11,47.2233-.2448,2.9916-.7367,6.7646,1.6649,8.8359,3.5841,3.099,9.2917-1.2878,13.9575-3.9672C95.516,50.81,116.9888,38.5454,138.4392,26.3531L125.8381,13.7582A46.9758,46.9758,0,0,0,61.9,11.4373Z" style="fill:url(#radial-gradient-2)"/><path d="M40.6343,82.2211c4.8036-2.9419,8.5306-7.021,10.113-11.6513,1.4295-4.1886,1.5282-8.4761,1.9277-12.937C53.8433,44.459,54.954,31.58,56.0009,18.7087c.0412-.5635.0949-1.15.1415-1.7116L13.7585,59.3779a46.9754,46.9754,0,0,0-12.4,44.4786c4.4839-1.31,9.0038-4.2687,13.4048-6.7746C23.6532,92.0141,31.9319,87.5408,40.6343,82.2211Z" style="fill:url(#radial-gradient-3)"/><path d="M49.4657,96.956c.2378-2.98,1.0508-7.5473-2.436-9.6087-3.3058-1.9508-7.3515,1.28-11.0109,3.3346C30.66,93.6852,22.7516,98.31,16.8131,101.69c-2.2633,1.281-8.0035,3.7791-8.9666,6.6629-1.36,4.0665,5.1859,6.5772,7.94,7.6794a121.8,121.8,0,0,0,19.4614,6.1512c2.8564.6468,6.9527,1.6479,9.7347-.5129,3.252-2.5479,2.97-6.47,3.2038-9.0973C48.6114,107.7554,49.1128,101.3818,49.4657,96.956Z" style="fill:url(#radial-gradient-4)"/><path d="M41.3992,146.7683c5.5621-2.5573,5.4316-9.7967.635-13.1888-.14-.0979-.2324-.3015-.3832-.3933-3.5452-2.0489-8.6417-2.4685-12.7979-3.5817a156.3808,156.3808,0,0,1-16.7091-5.4688q.787.8627,1.6145,1.7007L34.61,146.69C37.0658,147.3806,39.4536,147.6543,41.3992,146.7683Z" style="fill:url(#radial-gradient-5)"/><path d="M134.8817,117.577C111.07,130.1641,87.2629,134.5961,63.298,134.5961c-3.741,0-7.5713-.4928-10.2476,2.0551-4.1926,3.989-2.6941,11.8767,2.5627,14.8537,3.476,1.9788,8.8663,2.3131,13.0643,2.8184a175.4368,175.4368,0,0,0,84.4211-10.131l18.367-18.356a46.9936,46.9936,0,0,0,11.2044-48.53c-2.1928,2.8666-4.5167,5.7044-7.0631,8.4987A150.2144,150.2144,0,0,1,134.8817,117.577Z" style="fill:url(#radial-gradient-6)"/><path d="M63.0391,158.6745c-4.212-.5845-8.2251-2.1111-11.778,1.2872a7.4832,7.4832,0,0,0-1.4295,1.9446L59.389,171.45a46.98,46.98,0,0,0,66.4491,0l18.9071-18.8986c-17.3176,5.2932-34.7167,7.6017-52.51,8.18A180.2435,180.2435,0,0,1,63.0391,158.6745Z" style="fill:url(#radial-gradient-7)"/></g></g></g></g></g></svg>