<svg xmlns="http://www.w3.org/2000/svg" viewBox="0 0 205.95334 237.81529">
 <g>
  <g id="layer2">
   <path fill="#000000" stroke="#000000" stroke-width="0.360758px" id="path887" d="m18.995573,70.422191l0,96.97451l83.9812,48.48388l83.98099,-48.48388l0,-96.97451l-83.98099,-48.48748l-83.9812,48.48748z"/>
  </g>
  <g id="layer1">
   <path fill="#05567e" fill-rule="evenodd" stroke-width="2.115556" id="path845" d="m103.69829,45.00368l-64.98563,37.52002l0,75.04056l18.99578,10.96702l0,-38.98967l45.98985,0l3.33178,-10.30149l-3.33178,-8.69408l-45.98985,0l0,-17.05459l45.98985,-26.55293l4.44245,-9.99563l-4.44245,-11.93921z"/>
   <path fill="#087cb5" fill-rule="evenodd" stroke-width="2.115556" id="path847" d="m103.69552,129.54161l0.47134,0l45.51786,0l0,38.98967l18.99621,-10.96702l0,-75.04056l-64.98541,-37.52009l0,21.93491l45.9892,26.55293l0,17.05459l-45.9892,0l0,18.99557z"/>
   <path fill="#05567e" fill-rule="evenodd" stroke-width="2.115556" id="path849" d="m102.97677,237.65266l-102.97677,-59.45091l0,-118.90966l102.97677,-59.45472l2.46039,11.23635l-2.46039,10.69836l-41.9925,24.24532l-41.9887,24.24216l0,48.48704l0,48.48747l41.9887,24.24237l41.9925,24.24151l3.88882,7.66592l-3.88882,14.26879z"/>
   <path fill="#087cb5" fill-rule="evenodd" stroke-width="2.115556" id="path851" d="m102.966569,-0.10013l102.97657,59.45472l0,118.90966l-102.97657,59.45091l0,-21.93471l41.9923,-24.24151l41.98869,-24.24237l0,-48.48747l0,-48.48704l-41.98869,-24.24216l-41.9923,-24.24532l0,-21.93471z"/>
  </g>
 </g>
</svg>